<mxfile host="app.diagrams.net" modified="2024-03-20T03:16:52.995Z" agent="Mozilla/5.0 (Macintosh; Intel Mac OS X 10.15; rv:124.0) Gecko/20100101 Firefox/124.0" etag="0aB8IMISaJpdz3lhh_5N" version="24.0.7" type="github">
  <diagram name="Page-1" id="7W61Vags5a8PiI53Jj7j">
    <mxGraphModel dx="1024" dy="653" grid="1" gridSize="10" guides="1" tooltips="1" connect="1" arrows="1" fold="1" page="1" pageScale="1" pageWidth="850" pageHeight="1100" math="0" shadow="0">
      <root>
        <mxCell id="0" />
        <mxCell id="1" parent="0" />
        <mxCell id="aDfEAVYEbUevNUgyTg0L-1" value="Midas DL251 A" style="rounded=0;whiteSpace=wrap;html=1;" parent="1" vertex="1">
          <mxGeometry x="20" y="350" width="840" height="230" as="geometry" />
        </mxCell>
        <mxCell id="aDfEAVYEbUevNUgyTg0L-2" value="" style="rounded=0;whiteSpace=wrap;html=1;" parent="1" vertex="1">
          <mxGeometry x="30" y="390" width="520" height="170" as="geometry" />
        </mxCell>
        <mxCell id="aDfEAVYEbUevNUgyTg0L-3" value="Midas DL251 A" style="text;html=1;align=center;verticalAlign=middle;whiteSpace=wrap;rounded=0;" parent="1" vertex="1">
          <mxGeometry x="380" y="360" width="120" height="30" as="geometry" />
        </mxCell>
        <mxCell id="aDfEAVYEbUevNUgyTg0L-4" value="Inputs" style="text;html=1;align=center;verticalAlign=middle;whiteSpace=wrap;rounded=0;" parent="1" vertex="1">
          <mxGeometry x="255" y="400" width="70" height="30" as="geometry" />
        </mxCell>
        <mxCell id="aDfEAVYEbUevNUgyTg0L-5" value="9" style="rounded=0;whiteSpace=wrap;html=1;" parent="1" vertex="1">
          <mxGeometry x="70" y="500" width="50" height="40" as="geometry" />
        </mxCell>
        <mxCell id="aDfEAVYEbUevNUgyTg0L-6" value="10" style="rounded=0;whiteSpace=wrap;html=1;" parent="1" vertex="1">
          <mxGeometry x="130" y="500" width="50" height="40" as="geometry" />
        </mxCell>
        <mxCell id="aDfEAVYEbUevNUgyTg0L-7" value="11" style="rounded=0;whiteSpace=wrap;html=1;" parent="1" vertex="1">
          <mxGeometry x="190" y="500" width="50" height="40" as="geometry" />
        </mxCell>
        <mxCell id="aDfEAVYEbUevNUgyTg0L-8" value="12" style="rounded=0;whiteSpace=wrap;html=1;" parent="1" vertex="1">
          <mxGeometry x="250" y="500" width="50" height="40" as="geometry" />
        </mxCell>
        <mxCell id="aDfEAVYEbUevNUgyTg0L-9" value="13" style="rounded=0;whiteSpace=wrap;html=1;" parent="1" vertex="1">
          <mxGeometry x="310" y="500" width="50" height="40" as="geometry" />
        </mxCell>
        <mxCell id="aDfEAVYEbUevNUgyTg0L-10" value="14" style="rounded=0;whiteSpace=wrap;html=1;" parent="1" vertex="1">
          <mxGeometry x="370" y="500" width="50" height="40" as="geometry" />
        </mxCell>
        <mxCell id="aDfEAVYEbUevNUgyTg0L-11" value="15" style="rounded=0;whiteSpace=wrap;html=1;" parent="1" vertex="1">
          <mxGeometry x="430" y="500" width="50" height="40" as="geometry" />
        </mxCell>
        <mxCell id="aDfEAVYEbUevNUgyTg0L-12" value="16" style="rounded=0;whiteSpace=wrap;html=1;" parent="1" vertex="1">
          <mxGeometry x="490" y="500" width="50" height="40" as="geometry" />
        </mxCell>
        <mxCell id="aDfEAVYEbUevNUgyTg0L-13" value="8" style="rounded=0;whiteSpace=wrap;html=1;" parent="1" vertex="1">
          <mxGeometry x="460" y="450" width="50" height="40" as="geometry" />
        </mxCell>
        <mxCell id="aDfEAVYEbUevNUgyTg0L-14" value="7" style="rounded=0;whiteSpace=wrap;html=1;" parent="1" vertex="1">
          <mxGeometry x="400" y="450" width="50" height="40" as="geometry" />
        </mxCell>
        <mxCell id="aDfEAVYEbUevNUgyTg0L-15" value="6" style="rounded=0;whiteSpace=wrap;html=1;" parent="1" vertex="1">
          <mxGeometry x="340" y="450" width="50" height="40" as="geometry" />
        </mxCell>
        <mxCell id="aDfEAVYEbUevNUgyTg0L-16" value="5" style="rounded=0;whiteSpace=wrap;html=1;" parent="1" vertex="1">
          <mxGeometry x="280" y="450" width="50" height="40" as="geometry" />
        </mxCell>
        <mxCell id="aDfEAVYEbUevNUgyTg0L-17" value="4" style="rounded=0;whiteSpace=wrap;html=1;" parent="1" vertex="1">
          <mxGeometry x="220" y="450" width="50" height="40" as="geometry" />
        </mxCell>
        <mxCell id="aDfEAVYEbUevNUgyTg0L-18" value="3" style="rounded=0;whiteSpace=wrap;html=1;" parent="1" vertex="1">
          <mxGeometry x="160" y="450" width="50" height="40" as="geometry" />
        </mxCell>
        <mxCell id="aDfEAVYEbUevNUgyTg0L-19" value="2" style="rounded=0;whiteSpace=wrap;html=1;" parent="1" vertex="1">
          <mxGeometry x="100" y="450" width="50" height="40" as="geometry" />
        </mxCell>
        <mxCell id="aDfEAVYEbUevNUgyTg0L-20" value="1" style="rounded=0;whiteSpace=wrap;html=1;" parent="1" vertex="1">
          <mxGeometry x="40" y="450" width="50" height="40" as="geometry" />
        </mxCell>
        <mxCell id="aDfEAVYEbUevNUgyTg0L-21" value="" style="rounded=0;whiteSpace=wrap;html=1;" parent="1" vertex="1">
          <mxGeometry x="560" y="390" width="280" height="170" as="geometry" />
        </mxCell>
        <mxCell id="aDfEAVYEbUevNUgyTg0L-22" value="&lt;div&gt;Outputs&lt;/div&gt;" style="text;html=1;align=center;verticalAlign=middle;whiteSpace=wrap;rounded=0;" parent="1" vertex="1">
          <mxGeometry x="670" y="400" width="60" height="30" as="geometry" />
        </mxCell>
        <mxCell id="aDfEAVYEbUevNUgyTg0L-24" value="1" style="rounded=0;whiteSpace=wrap;html=1;" parent="1" vertex="1">
          <mxGeometry x="570" y="450" width="50" height="40" as="geometry" />
        </mxCell>
        <mxCell id="aDfEAVYEbUevNUgyTg0L-25" value="2" style="rounded=0;whiteSpace=wrap;html=1;" parent="1" vertex="1">
          <mxGeometry x="630" y="450" width="50" height="40" as="geometry" />
        </mxCell>
        <mxCell id="aDfEAVYEbUevNUgyTg0L-26" value="3" style="rounded=0;whiteSpace=wrap;html=1;" parent="1" vertex="1">
          <mxGeometry x="690" y="450" width="50" height="40" as="geometry" />
        </mxCell>
        <mxCell id="aDfEAVYEbUevNUgyTg0L-27" value="4" style="rounded=0;whiteSpace=wrap;html=1;" parent="1" vertex="1">
          <mxGeometry x="750" y="450" width="50" height="40" as="geometry" />
        </mxCell>
        <mxCell id="aDfEAVYEbUevNUgyTg0L-28" value="5" style="rounded=0;whiteSpace=wrap;html=1;" parent="1" vertex="1">
          <mxGeometry x="600" y="500" width="50" height="40" as="geometry" />
        </mxCell>
        <mxCell id="aDfEAVYEbUevNUgyTg0L-29" value="6" style="rounded=0;whiteSpace=wrap;html=1;" parent="1" vertex="1">
          <mxGeometry x="660" y="500" width="50" height="40" as="geometry" />
        </mxCell>
        <mxCell id="aDfEAVYEbUevNUgyTg0L-30" value="7" style="rounded=0;whiteSpace=wrap;html=1;" parent="1" vertex="1">
          <mxGeometry x="720" y="500" width="50" height="40" as="geometry" />
        </mxCell>
        <mxCell id="aDfEAVYEbUevNUgyTg0L-31" value="8" style="rounded=0;whiteSpace=wrap;html=1;" parent="1" vertex="1">
          <mxGeometry x="780" y="500" width="50" height="40" as="geometry" />
        </mxCell>
        <mxCell id="aDfEAVYEbUevNUgyTg0L-34" value="Midas DL251 A" style="rounded=0;whiteSpace=wrap;html=1;" parent="1" vertex="1">
          <mxGeometry x="900" y="350" width="840" height="230" as="geometry" />
        </mxCell>
        <mxCell id="aDfEAVYEbUevNUgyTg0L-35" value="" style="rounded=0;whiteSpace=wrap;html=1;" parent="1" vertex="1">
          <mxGeometry x="910" y="390" width="520" height="170" as="geometry" />
        </mxCell>
        <mxCell id="aDfEAVYEbUevNUgyTg0L-36" value="Midas DL251 A" style="text;html=1;align=center;verticalAlign=middle;whiteSpace=wrap;rounded=0;" parent="1" vertex="1">
          <mxGeometry x="1260" y="360" width="120" height="30" as="geometry" />
        </mxCell>
        <mxCell id="aDfEAVYEbUevNUgyTg0L-37" value="Inputs" style="text;html=1;align=center;verticalAlign=middle;whiteSpace=wrap;rounded=0;" parent="1" vertex="1">
          <mxGeometry x="1135" y="400" width="70" height="30" as="geometry" />
        </mxCell>
        <mxCell id="aDfEAVYEbUevNUgyTg0L-38" value="9" style="rounded=0;whiteSpace=wrap;html=1;" parent="1" vertex="1">
          <mxGeometry x="950" y="500" width="50" height="40" as="geometry" />
        </mxCell>
        <mxCell id="aDfEAVYEbUevNUgyTg0L-39" value="10" style="rounded=0;whiteSpace=wrap;html=1;" parent="1" vertex="1">
          <mxGeometry x="1010" y="500" width="50" height="40" as="geometry" />
        </mxCell>
        <mxCell id="aDfEAVYEbUevNUgyTg0L-40" value="11" style="rounded=0;whiteSpace=wrap;html=1;" parent="1" vertex="1">
          <mxGeometry x="1070" y="500" width="50" height="40" as="geometry" />
        </mxCell>
        <mxCell id="aDfEAVYEbUevNUgyTg0L-41" value="12" style="rounded=0;whiteSpace=wrap;html=1;" parent="1" vertex="1">
          <mxGeometry x="1130" y="500" width="50" height="40" as="geometry" />
        </mxCell>
        <mxCell id="aDfEAVYEbUevNUgyTg0L-42" value="13" style="rounded=0;whiteSpace=wrap;html=1;" parent="1" vertex="1">
          <mxGeometry x="1190" y="500" width="50" height="40" as="geometry" />
        </mxCell>
        <mxCell id="aDfEAVYEbUevNUgyTg0L-43" value="14" style="rounded=0;whiteSpace=wrap;html=1;" parent="1" vertex="1">
          <mxGeometry x="1250" y="500" width="50" height="40" as="geometry" />
        </mxCell>
        <mxCell id="aDfEAVYEbUevNUgyTg0L-44" value="15" style="rounded=0;whiteSpace=wrap;html=1;" parent="1" vertex="1">
          <mxGeometry x="1310" y="500" width="50" height="40" as="geometry" />
        </mxCell>
        <mxCell id="aDfEAVYEbUevNUgyTg0L-45" value="16" style="rounded=0;whiteSpace=wrap;html=1;" parent="1" vertex="1">
          <mxGeometry x="1370" y="500" width="50" height="40" as="geometry" />
        </mxCell>
        <mxCell id="aDfEAVYEbUevNUgyTg0L-46" value="8" style="rounded=0;whiteSpace=wrap;html=1;" parent="1" vertex="1">
          <mxGeometry x="1340" y="450" width="50" height="40" as="geometry" />
        </mxCell>
        <mxCell id="aDfEAVYEbUevNUgyTg0L-47" value="7" style="rounded=0;whiteSpace=wrap;html=1;" parent="1" vertex="1">
          <mxGeometry x="1280" y="450" width="50" height="40" as="geometry" />
        </mxCell>
        <mxCell id="aDfEAVYEbUevNUgyTg0L-48" value="6" style="rounded=0;whiteSpace=wrap;html=1;" parent="1" vertex="1">
          <mxGeometry x="1220" y="450" width="50" height="40" as="geometry" />
        </mxCell>
        <mxCell id="aDfEAVYEbUevNUgyTg0L-49" value="5" style="rounded=0;whiteSpace=wrap;html=1;" parent="1" vertex="1">
          <mxGeometry x="1160" y="450" width="50" height="40" as="geometry" />
        </mxCell>
        <mxCell id="aDfEAVYEbUevNUgyTg0L-50" value="4" style="rounded=0;whiteSpace=wrap;html=1;" parent="1" vertex="1">
          <mxGeometry x="1100" y="450" width="50" height="40" as="geometry" />
        </mxCell>
        <mxCell id="aDfEAVYEbUevNUgyTg0L-51" value="3" style="rounded=0;whiteSpace=wrap;html=1;" parent="1" vertex="1">
          <mxGeometry x="1040" y="450" width="50" height="40" as="geometry" />
        </mxCell>
        <mxCell id="aDfEAVYEbUevNUgyTg0L-52" value="2" style="rounded=0;whiteSpace=wrap;html=1;" parent="1" vertex="1">
          <mxGeometry x="980" y="450" width="50" height="40" as="geometry" />
        </mxCell>
        <mxCell id="aDfEAVYEbUevNUgyTg0L-53" value="1" style="rounded=0;whiteSpace=wrap;html=1;" parent="1" vertex="1">
          <mxGeometry x="920" y="450" width="50" height="40" as="geometry" />
        </mxCell>
        <mxCell id="aDfEAVYEbUevNUgyTg0L-54" value="" style="rounded=0;whiteSpace=wrap;html=1;" parent="1" vertex="1">
          <mxGeometry x="1440" y="390" width="280" height="170" as="geometry" />
        </mxCell>
        <mxCell id="aDfEAVYEbUevNUgyTg0L-55" value="&lt;div&gt;Outputs&lt;/div&gt;" style="text;html=1;align=center;verticalAlign=middle;whiteSpace=wrap;rounded=0;" parent="1" vertex="1">
          <mxGeometry x="1550" y="400" width="60" height="30" as="geometry" />
        </mxCell>
        <mxCell id="aDfEAVYEbUevNUgyTg0L-56" value="1" style="rounded=0;whiteSpace=wrap;html=1;" parent="1" vertex="1">
          <mxGeometry x="1450" y="450" width="50" height="40" as="geometry" />
        </mxCell>
        <mxCell id="aDfEAVYEbUevNUgyTg0L-57" value="2" style="rounded=0;whiteSpace=wrap;html=1;" parent="1" vertex="1">
          <mxGeometry x="1510" y="450" width="50" height="40" as="geometry" />
        </mxCell>
        <mxCell id="aDfEAVYEbUevNUgyTg0L-58" value="3" style="rounded=0;whiteSpace=wrap;html=1;" parent="1" vertex="1">
          <mxGeometry x="1570" y="450" width="50" height="40" as="geometry" />
        </mxCell>
        <mxCell id="aDfEAVYEbUevNUgyTg0L-59" value="4" style="rounded=0;whiteSpace=wrap;html=1;" parent="1" vertex="1">
          <mxGeometry x="1630" y="450" width="50" height="40" as="geometry" />
        </mxCell>
        <mxCell id="aDfEAVYEbUevNUgyTg0L-60" value="5" style="rounded=0;whiteSpace=wrap;html=1;" parent="1" vertex="1">
          <mxGeometry x="1480" y="500" width="50" height="40" as="geometry" />
        </mxCell>
        <mxCell id="aDfEAVYEbUevNUgyTg0L-61" value="6" style="rounded=0;whiteSpace=wrap;html=1;" parent="1" vertex="1">
          <mxGeometry x="1540" y="500" width="50" height="40" as="geometry" />
        </mxCell>
        <mxCell id="aDfEAVYEbUevNUgyTg0L-62" value="7" style="rounded=0;whiteSpace=wrap;html=1;" parent="1" vertex="1">
          <mxGeometry x="1600" y="500" width="50" height="40" as="geometry" />
        </mxCell>
        <mxCell id="aDfEAVYEbUevNUgyTg0L-63" value="8" style="rounded=0;whiteSpace=wrap;html=1;" parent="1" vertex="1">
          <mxGeometry x="1660" y="500" width="50" height="40" as="geometry" />
        </mxCell>
        <mxCell id="r4GI-148xGuSqnSD-xBa-13" value="" style="rounded=0;whiteSpace=wrap;html=1;" vertex="1" parent="1">
          <mxGeometry x="520" width="455" height="230" as="geometry" />
        </mxCell>
        <mxCell id="aDfEAVYEbUevNUgyTg0L-64" value="Midas Pro1" style="rounded=0;whiteSpace=wrap;html=1;" parent="1" vertex="1">
          <mxGeometry x="20" y="800" width="780" height="280" as="geometry" />
        </mxCell>
        <mxCell id="r4GI-148xGuSqnSD-xBa-2" value="" style="rounded=0;whiteSpace=wrap;html=1;" vertex="1" parent="1">
          <mxGeometry x="535" y="50" width="280" height="170" as="geometry" />
        </mxCell>
        <mxCell id="r4GI-148xGuSqnSD-xBa-3" value="1" style="rounded=0;whiteSpace=wrap;html=1;" vertex="1" parent="1">
          <mxGeometry x="545" y="110" width="50" height="40" as="geometry" />
        </mxCell>
        <mxCell id="r4GI-148xGuSqnSD-xBa-4" value="2" style="rounded=0;whiteSpace=wrap;html=1;" vertex="1" parent="1">
          <mxGeometry x="605" y="110" width="50" height="40" as="geometry" />
        </mxCell>
        <mxCell id="r4GI-148xGuSqnSD-xBa-5" value="3" style="rounded=0;whiteSpace=wrap;html=1;" vertex="1" parent="1">
          <mxGeometry x="665" y="110" width="50" height="40" as="geometry" />
        </mxCell>
        <mxCell id="r4GI-148xGuSqnSD-xBa-6" value="4" style="rounded=0;whiteSpace=wrap;html=1;" vertex="1" parent="1">
          <mxGeometry x="725" y="110" width="50" height="40" as="geometry" />
        </mxCell>
        <mxCell id="r4GI-148xGuSqnSD-xBa-7" value="8" style="rounded=0;whiteSpace=wrap;html=1;" vertex="1" parent="1">
          <mxGeometry x="755" y="160" width="50" height="40" as="geometry" />
        </mxCell>
        <mxCell id="r4GI-148xGuSqnSD-xBa-8" value="7" style="rounded=0;whiteSpace=wrap;html=1;" vertex="1" parent="1">
          <mxGeometry x="695" y="160" width="50" height="40" as="geometry" />
        </mxCell>
        <mxCell id="r4GI-148xGuSqnSD-xBa-9" value="6" style="rounded=0;whiteSpace=wrap;html=1;" vertex="1" parent="1">
          <mxGeometry x="635" y="160" width="50" height="40" as="geometry" />
        </mxCell>
        <mxCell id="r4GI-148xGuSqnSD-xBa-10" value="5" style="rounded=0;whiteSpace=wrap;html=1;" vertex="1" parent="1">
          <mxGeometry x="575" y="160" width="50" height="40" as="geometry" />
        </mxCell>
        <mxCell id="r4GI-148xGuSqnSD-xBa-12" value="&lt;div&gt;Outputs&lt;/div&gt;" style="text;html=1;align=center;verticalAlign=middle;whiteSpace=wrap;rounded=0;" vertex="1" parent="1">
          <mxGeometry x="650" y="60" width="60" height="30" as="geometry" />
        </mxCell>
        <mxCell id="r4GI-148xGuSqnSD-xBa-14" value="Floor box 3" style="text;html=1;align=center;verticalAlign=middle;whiteSpace=wrap;rounded=0;" vertex="1" parent="1">
          <mxGeometry x="720" y="10" width="65" height="30" as="geometry" />
        </mxCell>
        <mxCell id="r4GI-148xGuSqnSD-xBa-15" value="" style="rounded=0;whiteSpace=wrap;html=1;" vertex="1" parent="1">
          <mxGeometry x="830" y="50" width="135" height="170" as="geometry" />
        </mxCell>
        <mxCell id="r4GI-148xGuSqnSD-xBa-16" value="Inputs" style="text;html=1;align=center;verticalAlign=middle;whiteSpace=wrap;rounded=0;" vertex="1" parent="1">
          <mxGeometry x="867.5" y="60" width="60" height="30" as="geometry" />
        </mxCell>
        <mxCell id="r4GI-148xGuSqnSD-xBa-17" value="1" style="rounded=0;whiteSpace=wrap;html=1;" vertex="1" parent="1">
          <mxGeometry x="842.5" y="160" width="50" height="40" as="geometry" />
        </mxCell>
        <mxCell id="r4GI-148xGuSqnSD-xBa-18" value="2" style="rounded=0;whiteSpace=wrap;html=1;" vertex="1" parent="1">
          <mxGeometry x="902.5" y="160" width="50" height="40" as="geometry" />
        </mxCell>
        <mxCell id="r4GI-148xGuSqnSD-xBa-19" value="" style="rounded=0;whiteSpace=wrap;html=1;" vertex="1" parent="1">
          <mxGeometry x="1005" width="455" height="230" as="geometry" />
        </mxCell>
        <mxCell id="r4GI-148xGuSqnSD-xBa-20" value="" style="rounded=0;whiteSpace=wrap;html=1;" vertex="1" parent="1">
          <mxGeometry x="1020" y="50" width="280" height="170" as="geometry" />
        </mxCell>
        <mxCell id="r4GI-148xGuSqnSD-xBa-21" value="1" style="rounded=0;whiteSpace=wrap;html=1;" vertex="1" parent="1">
          <mxGeometry x="1030" y="110" width="50" height="40" as="geometry" />
        </mxCell>
        <mxCell id="r4GI-148xGuSqnSD-xBa-22" value="2" style="rounded=0;whiteSpace=wrap;html=1;" vertex="1" parent="1">
          <mxGeometry x="1090" y="110" width="50" height="40" as="geometry" />
        </mxCell>
        <mxCell id="r4GI-148xGuSqnSD-xBa-23" value="3" style="rounded=0;whiteSpace=wrap;html=1;" vertex="1" parent="1">
          <mxGeometry x="1150" y="110" width="50" height="40" as="geometry" />
        </mxCell>
        <mxCell id="r4GI-148xGuSqnSD-xBa-24" value="4" style="rounded=0;whiteSpace=wrap;html=1;" vertex="1" parent="1">
          <mxGeometry x="1210" y="110" width="50" height="40" as="geometry" />
        </mxCell>
        <mxCell id="r4GI-148xGuSqnSD-xBa-25" value="8" style="rounded=0;whiteSpace=wrap;html=1;" vertex="1" parent="1">
          <mxGeometry x="1240" y="160" width="50" height="40" as="geometry" />
        </mxCell>
        <mxCell id="r4GI-148xGuSqnSD-xBa-26" value="7" style="rounded=0;whiteSpace=wrap;html=1;" vertex="1" parent="1">
          <mxGeometry x="1180" y="160" width="50" height="40" as="geometry" />
        </mxCell>
        <mxCell id="r4GI-148xGuSqnSD-xBa-27" value="6" style="rounded=0;whiteSpace=wrap;html=1;" vertex="1" parent="1">
          <mxGeometry x="1120" y="160" width="50" height="40" as="geometry" />
        </mxCell>
        <mxCell id="r4GI-148xGuSqnSD-xBa-28" value="5" style="rounded=0;whiteSpace=wrap;html=1;" vertex="1" parent="1">
          <mxGeometry x="1060" y="160" width="50" height="40" as="geometry" />
        </mxCell>
        <mxCell id="r4GI-148xGuSqnSD-xBa-29" value="&lt;div&gt;Outputs&lt;/div&gt;" style="text;html=1;align=center;verticalAlign=middle;whiteSpace=wrap;rounded=0;" vertex="1" parent="1">
          <mxGeometry x="1135" y="60" width="60" height="30" as="geometry" />
        </mxCell>
        <mxCell id="r4GI-148xGuSqnSD-xBa-30" value="Floor Box 4" style="text;html=1;align=center;verticalAlign=middle;whiteSpace=wrap;rounded=0;" vertex="1" parent="1">
          <mxGeometry x="1205" y="10" width="65" height="30" as="geometry" />
        </mxCell>
        <mxCell id="r4GI-148xGuSqnSD-xBa-31" value="" style="rounded=0;whiteSpace=wrap;html=1;" vertex="1" parent="1">
          <mxGeometry x="1315" y="50" width="135" height="170" as="geometry" />
        </mxCell>
        <mxCell id="r4GI-148xGuSqnSD-xBa-32" value="Inputs" style="text;html=1;align=center;verticalAlign=middle;whiteSpace=wrap;rounded=0;" vertex="1" parent="1">
          <mxGeometry x="1352.5" y="60" width="60" height="30" as="geometry" />
        </mxCell>
        <mxCell id="r4GI-148xGuSqnSD-xBa-33" value="1" style="rounded=0;whiteSpace=wrap;html=1;" vertex="1" parent="1">
          <mxGeometry x="1327.5" y="160" width="50" height="40" as="geometry" />
        </mxCell>
        <mxCell id="r4GI-148xGuSqnSD-xBa-34" value="2" style="rounded=0;whiteSpace=wrap;html=1;" vertex="1" parent="1">
          <mxGeometry x="1387.5" y="160" width="50" height="40" as="geometry" />
        </mxCell>
        <mxCell id="r4GI-148xGuSqnSD-xBa-35" value="" style="rounded=0;whiteSpace=wrap;html=1;" vertex="1" parent="1">
          <mxGeometry x="20" width="240" height="230" as="geometry" />
        </mxCell>
        <mxCell id="r4GI-148xGuSqnSD-xBa-36" value="" style="rounded=0;whiteSpace=wrap;html=1;" vertex="1" parent="1">
          <mxGeometry x="35" y="50" width="135" height="170" as="geometry" />
        </mxCell>
        <mxCell id="r4GI-148xGuSqnSD-xBa-37" value="1" style="rounded=0;whiteSpace=wrap;html=1;" vertex="1" parent="1">
          <mxGeometry x="40" y="160" width="50" height="40" as="geometry" />
        </mxCell>
        <mxCell id="r4GI-148xGuSqnSD-xBa-38" value="2" style="rounded=0;whiteSpace=wrap;html=1;" vertex="1" parent="1">
          <mxGeometry x="100" y="160" width="50" height="40" as="geometry" />
        </mxCell>
        <mxCell id="r4GI-148xGuSqnSD-xBa-45" value="&lt;div&gt;Outputs&lt;/div&gt;" style="text;html=1;align=center;verticalAlign=middle;whiteSpace=wrap;rounded=0;" vertex="1" parent="1">
          <mxGeometry x="70" y="60" width="60" height="30" as="geometry" />
        </mxCell>
        <mxCell id="r4GI-148xGuSqnSD-xBa-46" value="Floor Box 1" style="text;html=1;align=center;verticalAlign=middle;whiteSpace=wrap;rounded=0;" vertex="1" parent="1">
          <mxGeometry x="110" y="10" width="65" height="30" as="geometry" />
        </mxCell>
        <mxCell id="r4GI-148xGuSqnSD-xBa-47" value="" style="rounded=0;whiteSpace=wrap;html=1;" vertex="1" parent="1">
          <mxGeometry x="180" y="50" width="70" height="170" as="geometry" />
        </mxCell>
        <mxCell id="r4GI-148xGuSqnSD-xBa-48" value="Inputs" style="text;html=1;align=center;verticalAlign=middle;whiteSpace=wrap;rounded=0;" vertex="1" parent="1">
          <mxGeometry x="187.5" y="60" width="60" height="30" as="geometry" />
        </mxCell>
        <mxCell id="r4GI-148xGuSqnSD-xBa-49" value="1" style="rounded=0;whiteSpace=wrap;html=1;" vertex="1" parent="1">
          <mxGeometry x="192.5" y="160" width="50" height="40" as="geometry" />
        </mxCell>
        <mxCell id="r4GI-148xGuSqnSD-xBa-51" value="" style="rounded=0;whiteSpace=wrap;html=1;" vertex="1" parent="1">
          <mxGeometry x="270" width="240" height="230" as="geometry" />
        </mxCell>
        <mxCell id="r4GI-148xGuSqnSD-xBa-52" value="" style="rounded=0;whiteSpace=wrap;html=1;" vertex="1" parent="1">
          <mxGeometry x="285" y="50" width="135" height="170" as="geometry" />
        </mxCell>
        <mxCell id="r4GI-148xGuSqnSD-xBa-53" value="1" style="rounded=0;whiteSpace=wrap;html=1;" vertex="1" parent="1">
          <mxGeometry x="300" y="160" width="50" height="40" as="geometry" />
        </mxCell>
        <mxCell id="r4GI-148xGuSqnSD-xBa-54" value="2" style="rounded=0;whiteSpace=wrap;html=1;" vertex="1" parent="1">
          <mxGeometry x="360" y="160" width="50" height="40" as="geometry" />
        </mxCell>
        <mxCell id="r4GI-148xGuSqnSD-xBa-55" value="&lt;div&gt;Outputs&lt;/div&gt;" style="text;html=1;align=center;verticalAlign=middle;whiteSpace=wrap;rounded=0;" vertex="1" parent="1">
          <mxGeometry x="320" y="60" width="60" height="30" as="geometry" />
        </mxCell>
        <mxCell id="r4GI-148xGuSqnSD-xBa-56" value="Floor Box 2" style="text;html=1;align=center;verticalAlign=middle;whiteSpace=wrap;rounded=0;" vertex="1" parent="1">
          <mxGeometry x="360" y="10" width="65" height="30" as="geometry" />
        </mxCell>
        <mxCell id="r4GI-148xGuSqnSD-xBa-57" value="" style="rounded=0;whiteSpace=wrap;html=1;" vertex="1" parent="1">
          <mxGeometry x="430" y="50" width="70" height="170" as="geometry" />
        </mxCell>
        <mxCell id="r4GI-148xGuSqnSD-xBa-58" value="Inputs" style="text;html=1;align=center;verticalAlign=middle;whiteSpace=wrap;rounded=0;" vertex="1" parent="1">
          <mxGeometry x="437.5" y="60" width="60" height="30" as="geometry" />
        </mxCell>
        <mxCell id="r4GI-148xGuSqnSD-xBa-59" value="1" style="rounded=0;whiteSpace=wrap;html=1;" vertex="1" parent="1">
          <mxGeometry x="442.5" y="160" width="50" height="40" as="geometry" />
        </mxCell>
        <mxCell id="r4GI-148xGuSqnSD-xBa-60" value="" style="rounded=0;whiteSpace=wrap;html=1;" vertex="1" parent="1">
          <mxGeometry x="1470" width="300" height="230" as="geometry" />
        </mxCell>
        <mxCell id="r4GI-148xGuSqnSD-xBa-61" value="" style="rounded=0;whiteSpace=wrap;html=1;" vertex="1" parent="1">
          <mxGeometry x="1485" y="50" width="165" height="170" as="geometry" />
        </mxCell>
        <mxCell id="r4GI-148xGuSqnSD-xBa-62" value="3" style="rounded=0;whiteSpace=wrap;html=1;" vertex="1" parent="1">
          <mxGeometry x="1530" y="160" width="50" height="40" as="geometry" />
        </mxCell>
        <mxCell id="r4GI-148xGuSqnSD-xBa-63" value="4" style="rounded=0;whiteSpace=wrap;html=1;" vertex="1" parent="1">
          <mxGeometry x="1590" y="160" width="50" height="40" as="geometry" />
        </mxCell>
        <mxCell id="r4GI-148xGuSqnSD-xBa-64" value="&lt;div&gt;Outputs&lt;/div&gt;" style="text;html=1;align=center;verticalAlign=middle;whiteSpace=wrap;rounded=0;" vertex="1" parent="1">
          <mxGeometry x="1520" y="60" width="60" height="30" as="geometry" />
        </mxCell>
        <mxCell id="r4GI-148xGuSqnSD-xBa-65" value="Floor Box 5" style="text;html=1;align=center;verticalAlign=middle;whiteSpace=wrap;rounded=0;" vertex="1" parent="1">
          <mxGeometry x="1582.5" y="10" width="65" height="30" as="geometry" />
        </mxCell>
        <mxCell id="r4GI-148xGuSqnSD-xBa-66" value="" style="rounded=0;whiteSpace=wrap;html=1;" vertex="1" parent="1">
          <mxGeometry x="1660" y="50" width="100" height="170" as="geometry" />
        </mxCell>
        <mxCell id="r4GI-148xGuSqnSD-xBa-67" value="Inputs" style="text;html=1;align=center;verticalAlign=middle;whiteSpace=wrap;rounded=0;" vertex="1" parent="1">
          <mxGeometry x="1687.5" y="60" width="60" height="30" as="geometry" />
        </mxCell>
        <mxCell id="r4GI-148xGuSqnSD-xBa-68" value="2" style="rounded=0;whiteSpace=wrap;html=1;" vertex="1" parent="1">
          <mxGeometry x="1700" y="160" width="50" height="40" as="geometry" />
        </mxCell>
        <mxCell id="r4GI-148xGuSqnSD-xBa-69" value="2" style="rounded=0;whiteSpace=wrap;html=1;" vertex="1" parent="1">
          <mxGeometry x="1555" y="110" width="50" height="40" as="geometry" />
        </mxCell>
        <mxCell id="r4GI-148xGuSqnSD-xBa-70" value="1" style="rounded=0;whiteSpace=wrap;html=1;" vertex="1" parent="1">
          <mxGeometry x="1495" y="110" width="50" height="40" as="geometry" />
        </mxCell>
        <mxCell id="r4GI-148xGuSqnSD-xBa-71" value="1" style="rounded=0;whiteSpace=wrap;html=1;" vertex="1" parent="1">
          <mxGeometry x="1670" y="110" width="50" height="40" as="geometry" />
        </mxCell>
        <mxCell id="r4GI-148xGuSqnSD-xBa-72" value="" style="rounded=0;whiteSpace=wrap;html=1;" vertex="1" parent="1">
          <mxGeometry x="1780" width="300" height="230" as="geometry" />
        </mxCell>
        <mxCell id="r4GI-148xGuSqnSD-xBa-73" value="" style="rounded=0;whiteSpace=wrap;html=1;" vertex="1" parent="1">
          <mxGeometry x="1795" y="50" width="165" height="170" as="geometry" />
        </mxCell>
        <mxCell id="r4GI-148xGuSqnSD-xBa-74" value="3" style="rounded=0;whiteSpace=wrap;html=1;" vertex="1" parent="1">
          <mxGeometry x="1840" y="160" width="50" height="40" as="geometry" />
        </mxCell>
        <mxCell id="r4GI-148xGuSqnSD-xBa-75" value="4" style="rounded=0;whiteSpace=wrap;html=1;" vertex="1" parent="1">
          <mxGeometry x="1900" y="160" width="50" height="40" as="geometry" />
        </mxCell>
        <mxCell id="r4GI-148xGuSqnSD-xBa-76" value="&lt;div&gt;Outputs&lt;/div&gt;" style="text;html=1;align=center;verticalAlign=middle;whiteSpace=wrap;rounded=0;" vertex="1" parent="1">
          <mxGeometry x="1830" y="60" width="60" height="30" as="geometry" />
        </mxCell>
        <mxCell id="r4GI-148xGuSqnSD-xBa-77" value="Floor Box 6" style="text;html=1;align=center;verticalAlign=middle;whiteSpace=wrap;rounded=0;" vertex="1" parent="1">
          <mxGeometry x="1892.5" y="10" width="65" height="30" as="geometry" />
        </mxCell>
        <mxCell id="r4GI-148xGuSqnSD-xBa-78" value="" style="rounded=0;whiteSpace=wrap;html=1;" vertex="1" parent="1">
          <mxGeometry x="1970" y="50" width="100" height="170" as="geometry" />
        </mxCell>
        <mxCell id="r4GI-148xGuSqnSD-xBa-79" value="Inputs" style="text;html=1;align=center;verticalAlign=middle;whiteSpace=wrap;rounded=0;" vertex="1" parent="1">
          <mxGeometry x="1997.5" y="60" width="60" height="30" as="geometry" />
        </mxCell>
        <mxCell id="r4GI-148xGuSqnSD-xBa-80" value="2" style="rounded=0;whiteSpace=wrap;html=1;" vertex="1" parent="1">
          <mxGeometry x="2010" y="160" width="50" height="40" as="geometry" />
        </mxCell>
        <mxCell id="r4GI-148xGuSqnSD-xBa-81" value="2" style="rounded=0;whiteSpace=wrap;html=1;" vertex="1" parent="1">
          <mxGeometry x="1865" y="110" width="50" height="40" as="geometry" />
        </mxCell>
        <mxCell id="r4GI-148xGuSqnSD-xBa-82" value="1" style="rounded=0;whiteSpace=wrap;html=1;" vertex="1" parent="1">
          <mxGeometry x="1805" y="110" width="50" height="40" as="geometry" />
        </mxCell>
        <mxCell id="r4GI-148xGuSqnSD-xBa-83" value="1" style="rounded=0;whiteSpace=wrap;html=1;" vertex="1" parent="1">
          <mxGeometry x="1980" y="110" width="50" height="40" as="geometry" />
        </mxCell>
      </root>
    </mxGraphModel>
  </diagram>
</mxfile>
